<svg width="171" height="54" viewBox="0 0 171 54" fill="none" xmlns="http://www.w3.org/2000/svg">
<path d="M164.4 54H6.89985C3.37185 54 0.599854 51.03 0.599854 47.25V6.75C0.599854 2.97 3.37185 0 6.89985 0H164.4C167.928 0 170.7 2.97 170.7 6.75V47.25C170.7 51.03 167.928 54 164.4 54Z" fill="black"/>
<path d="M62.589 36.3074H56.1641L54.6222 40.7442H51.8999L57.9867 24.3263H60.8129L66.8997 40.7442H64.1309L62.589 36.3074ZM56.8295 34.259H61.9235L59.4107 27.0577H59.3409L56.8295 34.259Z" fill="white"/>
<path d="M80.0686 34.7606C80.0686 38.4798 78.0241 40.8697 74.9404 40.8697C74.1589 40.9098 73.3817 40.7347 72.6977 40.3643C72.0138 39.994 71.4508 39.4435 71.0733 38.7759H71.016V44.7037H68.4922V28.7753H70.9337V30.7664H70.9803C71.375 30.1018 71.9475 29.554 72.6367 29.1813C73.3259 28.8086 74.106 28.625 74.8939 28.6499C78.0133 28.6499 80.0686 31.0504 80.0686 34.7606ZM77.475 34.7606C77.475 32.3359 76.1907 30.7437 74.2284 30.7437C72.3003 30.7437 71.0035 32.3707 71.0035 34.7606C71.0035 37.1716 72.3003 38.788 74.2284 38.788C76.1907 38.788 77.475 37.2063 77.475 34.7606Z" fill="white"/>
<path d="M93.6191 34.7606C93.6191 38.4798 91.5747 40.8697 88.4909 40.8697C87.7095 40.9098 86.9322 40.7347 86.2482 40.3643C85.5643 39.994 85.0013 39.4435 84.6239 38.7759H84.5665V44.7037H82.0427V28.7753H84.4843V30.7664H84.5308C84.9256 30.1018 85.4981 29.554 86.1872 29.1813C86.8764 28.8086 87.6565 28.625 88.4444 28.6499C91.5638 28.6499 93.6191 31.0504 93.6191 34.7606ZM91.0256 34.7606C91.0256 32.3359 89.7412 30.7437 87.7789 30.7437C85.8508 30.7437 84.5541 32.3707 84.5541 34.7606C84.5541 37.1716 85.8509 38.788 87.7789 38.788C89.7412 38.788 91.0256 37.2063 91.0256 34.7606Z" fill="white"/>
<path d="M102.608 36.1698C102.795 37.7968 104.418 38.8663 106.638 38.8663C108.764 38.8663 110.295 37.7967 110.295 36.3299C110.295 35.0549 109.372 34.2935 107.187 33.7693L105.003 33.2572C101.907 32.5291 100.47 31.1196 100.47 28.8325C100.47 26 103.005 24.0543 106.604 24.0543C110.167 24.0543 112.608 26 112.69 28.8325H110.143C109.991 27.1934 108.602 26.2039 106.568 26.2039C104.536 26.2039 103.146 27.2055 103.146 28.6618C103.146 29.822 104.033 30.5048 106.206 31.0275L108.063 31.4716C111.521 32.2677 112.959 33.6213 112.959 36.0233C112.959 39.0944 110.447 41.0175 106.452 41.0175C102.713 41.0175 100.19 39.1398 100.027 36.1698L102.608 36.1698Z" fill="white"/>
<path d="M118.405 25.9427V28.7752H120.741V30.7209H118.405V37.3195C118.405 38.3437 118.872 38.8211 119.9 38.8211C120.177 38.817 120.453 38.7983 120.728 38.7652V40.6989C120.267 40.7825 119.797 40.8205 119.328 40.8122C116.838 40.8122 115.868 39.9027 115.868 37.5808V30.7209H114.082V28.7752H115.868V25.9427H118.405Z" fill="white"/>
<path d="M122.123 34.7604C122.123 30.9943 124.4 28.6271 127.952 28.6271C131.515 28.6271 133.781 30.9943 133.781 34.7604C133.781 38.5371 131.528 40.8922 127.952 40.8922C124.377 40.8922 122.123 38.5371 122.123 34.7604ZM131.211 34.7604C131.211 32.1772 129.997 30.6529 127.952 30.6529C125.908 30.6529 124.693 32.1877 124.693 34.7604C124.693 37.3542 125.908 38.8664 127.952 38.8664C129.997 38.8664 131.211 37.3543 131.211 34.7604Z" fill="white"/>
<path d="M135.863 28.7752H138.269V30.8115H138.328C138.49 30.1754 138.873 29.6132 139.411 29.2195C139.949 28.8258 140.61 28.6246 141.283 28.6498C141.574 28.648 141.864 28.6789 142.148 28.7419V31.0396C141.781 30.9306 141.398 30.8806 141.014 30.8916C140.648 30.877 140.283 30.9399 139.944 31.0758C139.605 31.2117 139.3 31.4175 139.05 31.679C138.801 31.9405 138.612 32.2515 138.498 32.5907C138.383 32.9299 138.345 33.2893 138.387 33.644V40.7441H135.863V28.7752Z" fill="white"/>
<path d="M153.779 37.2289C153.502 38.3601 152.812 39.3549 151.839 40.0286C150.866 40.7023 149.674 41.0092 148.486 40.8922C144.912 40.8922 142.693 38.5597 142.693 34.8163C142.693 31.0623 144.923 28.6271 148.382 28.6271C151.781 28.6271 153.918 30.9022 153.918 34.5323V35.3737H145.24V35.5218C145.199 35.9622 145.256 36.406 145.405 36.8235C145.555 37.241 145.794 37.6228 146.107 37.9434C146.419 38.2641 146.798 38.5162 147.219 38.6832C147.639 38.8501 148.091 38.928 148.545 38.9117C149.141 38.9662 149.74 38.8319 150.251 38.5287C150.762 38.2255 151.16 37.7696 151.384 37.2289H153.779ZM145.25 33.6561H151.396C151.419 33.2601 151.357 32.8639 151.215 32.4923C151.073 32.1206 150.853 31.7815 150.57 31.4963C150.287 31.2111 149.947 30.9859 149.57 30.8348C149.194 30.6837 148.789 30.6099 148.382 30.6182C147.971 30.6157 147.564 30.6925 147.184 30.8442C146.803 30.9958 146.458 31.2193 146.167 31.5018C145.875 31.7842 145.645 32.12 145.487 32.4897C145.33 32.8595 145.25 33.2559 145.25 33.6561Z" fill="white"/>
<path d="M52.9324 16.3779C54.9975 16.3779 56.4172 16.2488 58.0951 15.9907L58.2241 16.8942C56.4172 17.2814 54.9975 17.2814 52.8034 17.2814H51.8999V9.66646H57.3207V10.5699H52.9324V16.3779ZM62.2252 14.0547H60.2892V20.2499H59.2567V8.63393H60.2892V13.1512H62.2252V14.0547Z" fill="white" stroke="white" stroke-width="0.2" stroke-miterlimit="10"/>
<path d="M73.9702 14.4419V15.3454H69.3238V17.6685H68.2913V15.3454H63.5159V14.4419H73.9702ZM64.6775 11.2152C64.6775 9.79551 66.2263 8.89205 68.6785 8.89205C71.1308 8.89205 72.6796 9.79551 72.6796 11.2152C72.6796 12.635 71.1308 13.5384 68.6785 13.5384C66.3553 13.5384 64.6775 12.635 64.6775 11.2152ZM65.9681 18.9592H72.9377V19.8627H64.9356V16.507H65.9681V18.9592ZM65.8391 11.2152C65.8391 12.1187 67.0007 12.635 68.8076 12.635C70.6145 12.635 71.7761 12.1187 71.7761 11.2152C71.7761 10.3118 70.6145 9.79551 68.8076 9.79551C67.0007 9.66645 65.8391 10.3118 65.8391 11.2152Z" fill="white" stroke="white" stroke-width="0.2" stroke-miterlimit="10"/>
<path d="M85.4573 17.7976V18.7011H75.0029V17.7976H79.6493V15.6035H76.2936V12.1187H83.1341V10.3118H76.2936V9.40832H84.1666V12.8931H77.3261V14.7H84.4248V15.6035H80.6818V17.7976H85.4573Z" fill="white" stroke="white" stroke-width="0.2" stroke-miterlimit="10"/>
<path d="M97.5898 17.6686V18.572H87.1355V17.6686H97.5898ZM96.2992 14.9582H88.2971V9.66647H96.1701V10.5699H89.3296V14.1838H96.1701V14.9582H96.2992Z" fill="white" stroke="white" stroke-width="0.2" stroke-miterlimit="10"/>
<path d="M102.365 10.441H105.205V11.3445H98.3643V10.441H101.333V8.76313H102.365V10.441ZM104.688 14.9583C104.688 16.5071 103.527 17.6687 101.849 17.6687C100.171 17.6687 99.0096 16.6362 99.0096 14.9583C99.0096 13.4095 100.171 12.2479 101.849 12.2479C103.527 12.2479 104.688 13.4095 104.688 14.9583ZM103.656 14.9583C103.656 13.9258 102.882 13.1514 101.849 13.1514C100.817 13.1514 100.042 13.9258 100.042 14.9583C100.042 15.9908 100.817 16.7652 101.849 16.7652C103.011 16.6362 103.656 15.9908 103.656 14.9583ZM109.335 14.1839H107.399V20.1209H106.366V8.505H107.399V13.2804H109.335V14.1839Z" fill="white" stroke="white" stroke-width="0.2" stroke-miterlimit="10"/>
<path d="M115.788 9.79553C115.788 13.1512 114.239 16.1198 110.367 17.9267L109.851 17.1523C112.948 15.7326 114.497 13.4094 114.755 10.699H110.367V9.79553H115.788ZM119.273 8.63393V20.2499H118.24V8.63393H119.273Z" fill="white" stroke="white" stroke-width="0.2" stroke-miterlimit="10"/>
<path d="M38.2172 26.241C38.2328 25.0308 38.5542 23.8442 39.1517 22.7916C39.7491 21.739 40.603 20.8546 41.6341 20.2207C40.9791 19.2852 40.115 18.5154 39.1104 17.9723C38.1059 17.4292 36.9885 17.1279 35.8471 17.0922C33.4123 16.8366 31.0518 18.5491 29.8111 18.5491C28.5463 18.5491 26.636 17.1175 24.5789 17.1599C23.2483 17.2028 21.9515 17.5898 20.8149 18.2829C19.6784 18.9761 18.7407 19.9519 18.0933 21.1151C15.2891 25.9702 17.3808 33.1055 20.067 37.03C21.411 38.9517 22.9817 41.0983 25.0369 41.0222C27.0481 40.9387 27.7993 39.7397 30.2269 39.7397C32.632 39.7397 33.3368 41.0222 35.4337 40.9738C37.5918 40.9387 38.9515 39.0435 40.2483 37.1036C41.2139 35.7343 41.957 34.221 42.4499 32.6196C41.1962 32.0893 40.1262 31.2017 39.3735 30.0674C38.6208 28.9331 38.2186 27.6023 38.2172 26.241Z" fill="white"/>
<path d="M34.2567 14.5113C35.4334 13.0987 36.0131 11.2831 35.8727 9.45C34.075 9.63882 32.4144 10.498 31.2218 11.8564C30.6387 12.52 30.1922 13.292 29.9076 14.1283C29.6231 14.9646 29.5061 15.8487 29.5635 16.7302C30.4627 16.7395 31.3522 16.5446 32.1652 16.1602C32.9781 15.7759 33.6932 15.2121 34.2567 14.5113Z" fill="white"/>
</svg>
