<svg width="184" height="54" viewBox="0 0 184 54" fill="none" xmlns="http://www.w3.org/2000/svg">
<path d="M176.8 54H6.8C2.992 54 0 51.03 0 47.25V6.75C0 2.97 2.992 0 6.8 0H176.8C180.608 0 183.6 2.97 183.6 6.75V47.25C183.6 51.03 180.608 54 176.8 54Z" fill="black"/>
<path d="M91.9356 29.43C88.6956 29.43 86.1306 31.86 86.1306 35.235C86.1306 38.475 88.6956 41.04 91.9356 41.04C95.1756 41.04 97.7406 38.61 97.7406 35.235C97.7406 31.725 95.1756 29.43 91.9356 29.43ZM91.9356 38.61C90.1806 38.61 88.6956 37.125 88.6956 35.1C88.6956 33.075 90.1806 31.59 91.9356 31.59C93.6906 31.59 95.1756 32.94 95.1756 35.1C95.1756 37.125 93.6906 38.61 91.9356 38.61ZM79.3806 29.43C76.1406 29.43 73.5756 31.86 73.5756 35.235C73.5756 38.475 76.1406 41.04 79.3806 41.04C82.6206 41.04 85.1856 38.61 85.1856 35.235C85.1856 31.725 82.6206 29.43 79.3806 29.43ZM79.3806 38.61C77.6256 38.61 76.1406 37.125 76.1406 35.1C76.1406 33.075 77.6256 31.59 79.3806 31.59C81.1356 31.59 82.6206 32.94 82.6206 35.1C82.6206 37.125 81.1356 38.61 79.3806 38.61ZM64.3956 31.185V33.615H70.2006C70.0656 34.965 69.5256 36.045 68.8506 36.72C68.0406 37.53 66.6906 38.475 64.3956 38.475C60.7506 38.475 58.0506 35.64 58.0506 31.995C58.0506 28.35 60.8856 25.515 64.3956 25.515C66.2856 25.515 67.7706 26.325 68.8506 27.27L70.6056 25.515C69.1206 24.165 67.2306 23.085 64.5306 23.085C59.6706 23.085 55.4856 27.135 55.4856 31.995C55.4856 36.855 59.6706 40.905 64.5306 40.905C67.2306 40.905 69.1206 40.095 70.7406 38.34C72.3606 36.72 72.9006 34.425 72.9006 32.67C72.9006 32.13 72.9006 31.59 72.7656 31.185H64.3956ZM125.686 33.075C125.146 31.725 123.796 29.43 120.826 29.43C117.856 29.43 115.426 31.725 115.426 35.235C115.426 38.475 117.856 41.04 121.096 41.04C123.661 41.04 125.281 39.42 125.821 38.475L123.931 37.125C123.256 38.07 122.446 38.745 121.096 38.745C119.746 38.745 118.936 38.205 118.261 36.99L125.956 33.75L125.686 33.075ZM117.856 34.965C117.856 32.805 119.611 31.59 120.826 31.59C121.771 31.59 122.716 32.13 122.986 32.805L117.856 34.965ZM111.511 40.5H114.076V23.625H111.511V40.5ZM107.461 30.645C106.786 29.97 105.706 29.295 104.356 29.295C101.521 29.295 98.8206 31.86 98.8206 35.1C98.8206 38.34 101.386 40.77 104.356 40.77C105.706 40.77 106.786 40.095 107.326 39.42H107.461V40.23C107.461 42.39 106.246 43.605 104.356 43.605C102.871 43.605 101.791 42.525 101.521 41.58L99.3606 42.525C100.036 44.01 101.656 45.9 104.491 45.9C107.461 45.9 109.891 44.145 109.891 39.96V29.7H107.461V30.645ZM104.491 38.61C102.736 38.61 101.251 37.125 101.251 35.1C101.251 33.075 102.736 31.59 104.491 31.59C106.246 31.59 107.596 33.075 107.596 35.1C107.596 37.125 106.246 38.61 104.491 38.61ZM137.431 23.625H131.356V40.5H133.921V34.155H137.431C140.266 34.155 142.966 32.13 142.966 28.89C142.966 25.65 140.266 23.625 137.431 23.625ZM137.566 31.725H133.921V25.92H137.566C139.456 25.92 140.536 27.54 140.536 28.755C140.401 30.24 139.321 31.725 137.566 31.725ZM153.091 29.295C151.201 29.295 149.311 30.105 148.636 31.86L150.931 32.805C151.471 31.86 152.281 31.59 153.226 31.59C154.576 31.59 155.791 32.4 155.926 33.75V33.885C155.521 33.615 154.441 33.21 153.361 33.21C150.931 33.21 148.501 34.56 148.501 36.99C148.501 39.285 150.526 40.77 152.686 40.77C154.441 40.77 155.251 39.96 155.926 39.15H156.061V40.5H158.491V34.02C158.221 31.05 155.926 29.295 153.091 29.295ZM152.821 38.61C152.011 38.61 150.796 38.205 150.796 37.125C150.796 35.775 152.281 35.37 153.496 35.37C154.576 35.37 155.116 35.64 155.791 35.91C155.521 37.53 154.171 38.61 152.821 38.61ZM166.996 29.7L164.161 36.99H164.026L161.056 29.7H158.356L162.811 39.96L160.246 45.63H162.811L169.696 29.7H166.996ZM144.316 40.5H146.881V23.625H144.316V40.5Z" fill="white"/>
<path d="M14.04 10.125C13.635 10.53 13.5 11.205 13.5 12.015V41.85C13.5 42.66 13.77 43.335 14.175 43.74L14.31 43.875L31.05 27.135V27V26.865L14.04 10.125Z" fill="url(#paint0_linear)"/>
<path d="M36.45 32.805L30.915 27.27V27V26.865L36.45 21.33L36.585 21.465L43.2 25.245C45.09 26.325 45.09 28.08 43.2 29.16L36.45 32.805Z" fill="url(#paint1_linear)"/>
<path d="M36.585 32.67L30.915 27L14.04 43.875C14.715 44.55 15.66 44.55 16.875 44.01L36.585 32.67Z" fill="url(#paint2_linear)"/>
<path d="M36.585 21.33L16.875 10.125C15.66 9.45001 14.715 9.58501 14.04 10.26L30.915 27L36.585 21.33Z" fill="url(#paint3_linear)"/>
<path opacity="0.2" d="M36.45 32.535L16.875 43.605C15.795 44.28 14.85 44.145 14.175 43.605L14.04 43.74L14.175 43.875C14.85 44.415 15.795 44.55 16.875 43.875L36.45 32.535Z" fill="black"/>
<path opacity="0.12" d="M14.04 43.605C13.635 43.2 13.5 42.525 13.5 41.715V41.85C13.5 42.66 13.77 43.335 14.175 43.74V43.605H14.04Z" fill="black"/>
<path opacity="0.12" d="M43.2002 28.755L36.4502 32.535L36.5852 32.67L43.2002 28.89C44.1452 28.35 44.5502 27.675 44.5502 27C44.5502 27.675 44.0102 28.215 43.2002 28.755Z" fill="black"/>
<path opacity="0.25" d="M16.875 10.2601L43.2 25.2451C44.01 25.7851 44.55 26.3251 44.55 27.0001C44.55 26.3251 44.145 25.6501 43.2 25.1101L16.875 10.1251C14.985 9.04508 13.5 9.85508 13.5 12.0151V12.1501C13.5 10.1251 14.985 9.18008 16.875 10.2601Z" fill="white"/>
<path d="M56.6526 15.0279C58.7177 15.0279 60.1374 14.8988 61.8153 14.6407L61.9444 15.5442C60.1374 15.9314 58.7177 15.9314 56.5236 15.9314H55.6201V8.31646H61.0409V9.21993H56.6526V15.0279ZM65.9454 12.7047H64.0094V18.8999H62.9769V7.28394H64.0094V11.8012H65.9454V12.7047Z" fill="white" stroke="white" stroke-width="0.2" stroke-miterlimit="10"/>
<path d="M77.6904 13.0919V13.9954H73.0441V16.3186H72.0115V13.9954H67.2361V13.0919H77.6904ZM68.3977 9.86527C68.3977 8.44555 69.9465 7.54208 72.3987 7.54208C74.851 7.54208 76.3998 8.44555 76.3998 9.86527C76.3998 11.285 74.851 12.1885 72.3987 12.1885C70.0755 12.1885 68.3977 11.285 68.3977 9.86527ZM69.6883 17.6092H76.6579V18.5127H68.6558V15.157H69.6883V17.6092ZM69.5593 9.86527C69.5593 10.7687 70.7209 11.285 72.5278 11.285C74.3347 11.285 75.4963 10.7687 75.4963 9.86527C75.4963 8.96181 74.3347 8.44555 72.5278 8.44555C70.7209 8.31648 69.5593 8.96181 69.5593 9.86527Z" fill="white" stroke="white" stroke-width="0.2" stroke-miterlimit="10"/>
<path d="M89.1765 16.4476V17.3511H78.7222V16.4476H83.3685V14.2535H80.0128V10.7687H86.8533V8.96181H80.0128V8.05835H87.8859V11.5431H81.0454V13.3501H88.144V14.2535H84.4011V16.4476H89.1765Z" fill="white" stroke="white" stroke-width="0.2" stroke-miterlimit="10"/>
<path d="M101.31 16.3186V17.222H90.8557V16.3186H101.31ZM100.019 13.6082H92.0173V8.31647H99.8903V9.21993H93.0498V12.8338H99.8903V13.6082H100.019Z" fill="white" stroke="white" stroke-width="0.2" stroke-miterlimit="10"/>
<path d="M106.085 9.09099H108.924V9.99445H102.083V9.09099H105.052V7.41313H106.085V9.09099ZM108.408 13.6083C108.408 15.1571 107.246 16.3187 105.568 16.3187C103.89 16.3187 102.729 15.2862 102.729 13.6083C102.729 12.0595 103.89 10.8979 105.568 10.8979C107.246 10.8979 108.408 12.0595 108.408 13.6083ZM107.375 13.6083C107.375 12.5758 106.601 11.8014 105.568 11.8014C104.536 11.8014 103.761 12.5758 103.761 13.6083C103.761 14.6408 104.536 15.4152 105.568 15.4152C106.73 15.2862 107.375 14.6408 107.375 13.6083ZM113.054 12.8339H111.118V18.7709H110.086V7.155H111.118V11.9304H113.054V12.8339Z" fill="white" stroke="white" stroke-width="0.2" stroke-miterlimit="10"/>
<path d="M119.508 8.44553C119.508 11.8012 117.959 14.7698 114.087 16.5767L113.571 15.8023C116.669 14.3826 118.217 12.0594 118.476 9.34899H114.087V8.44553H119.508ZM122.993 7.28394V18.8999H121.96V7.28394H122.993Z" fill="white" stroke="white" stroke-width="0.2" stroke-miterlimit="10"/>
<defs>
<linearGradient id="paint0_linear" x1="29.4295" y1="11.7582" x2="6.77322" y2="34.4145" gradientUnits="userSpaceOnUse">
<stop stop-color="#00A0FF"/>
<stop offset="0.00657445" stop-color="#00A1FF"/>
<stop offset="0.2601" stop-color="#00BEFF"/>
<stop offset="0.5122" stop-color="#00D2FF"/>
<stop offset="0.7604" stop-color="#00DFFF"/>
<stop offset="1" stop-color="#00E3FF"/>
</linearGradient>
<linearGradient id="paint1_linear" x1="45.6763" y1="27.002" x2="13.0105" y2="27.002" gradientUnits="userSpaceOnUse">
<stop stop-color="#FFE000"/>
<stop offset="0.4087" stop-color="#FFBD00"/>
<stop offset="0.7754" stop-color="#FFA500"/>
<stop offset="1" stop-color="#FF9C00"/>
</linearGradient>
<linearGradient id="paint2_linear" x1="33.5164" y1="30.0999" x2="2.79265" y2="60.8236" gradientUnits="userSpaceOnUse">
<stop stop-color="#FF3A44"/>
<stop offset="1" stop-color="#C31162"/>
</linearGradient>
<linearGradient id="paint3_linear" x1="9.85126" y1="0.238011" x2="23.5708" y2="13.9574" gradientUnits="userSpaceOnUse">
<stop stop-color="#32A071"/>
<stop offset="0.0685" stop-color="#2DA771"/>
<stop offset="0.4762" stop-color="#15CF74"/>
<stop offset="0.8009" stop-color="#06E775"/>
<stop offset="1" stop-color="#00F076"/>
</linearGradient>
</defs>
</svg>
