<?xml version="1.0" encoding="utf-8"?>
<!-- Generator: Adobe Illustrator 23.0.1, SVG Export Plug-In . SVG Version: 6.00 Build 0)  -->
<svg version="1.1" id="레이어_1" xmlns="http://www.w3.org/2000/svg" xmlns:xlink="http://www.w3.org/1999/xlink" x="0px"
	 y="0px" viewBox="0 0 669 495" style="enable-background:new 0 0 669 495;" xml:space="preserve">
<style type="text/css">
	.st0{fill-rule:evenodd;clip-rule:evenodd;fill:#C1CFFF;}
	.st1{fill:#ABBEFF;}
	.st2{fill:#D1DCFF;}
	.st3{fill:none;stroke:#97AEFF;stroke-width:4;stroke-miterlimit:10;}
	.st4{opacity:0.6;}
	.st5{opacity:0.6;fill:#97AEFF;enable-background:new    ;}
	.st6{opacity:0.4;fill:#97AEFF;enable-background:new    ;}
	.st7{fill:#97AEFF;}
	.st8{fill:none;stroke:#97AEFF;stroke-width:38;}
	.st9{fill:none;stroke:#FFFFFF;stroke-width:3;stroke-miterlimit:10;}
	.st10{fill:none;stroke:#FFFFFF;stroke-width:2;stroke-miterlimit:10;}
	.st11{fill-rule:evenodd;clip-rule:evenodd;fill:#97AEFF;}
	.st12{fill-rule:evenodd;clip-rule:evenodd;fill:#BCCBFF;}
	.st13{fill:#231916;}
	.st14{fill:#28262C;}
	.st15{fill:#FBC2B1;}
	.st16{fill:#5C7CFA;}
	.st17{opacity:0.4;fill:#AF7766;enable-background:new    ;}
	.st18{fill:none;stroke:#231916;stroke-width:2.5;stroke-linecap:round;stroke-miterlimit:10;}
	.st19{fill:none;stroke:#231916;stroke-width:2;stroke-linecap:round;stroke-linejoin:round;}
	.st20{fill:none;stroke:#231916;stroke-width:2;stroke-linecap:round;stroke-linejoin:round;stroke-miterlimit:10;}
	.st21{fill:none;stroke:#000000;stroke-width:2;stroke-linecap:round;stroke-linejoin:round;stroke-miterlimit:10;}
	.st22{fill-rule:evenodd;clip-rule:evenodd;fill:#FFFFFF;}
	.st23{fill:none;stroke:#FFCE20;stroke-width:9;}
</style>
<path class="st0" d="M132.5,243.4C145.1,351.8,237.2,436,349,436c120.4,0,218-97.6,218-218C567,99.6,472.6,3.3,355,0.1v96.1
	c64.6,3.1,116,56.5,116,121.9c0,67.4-54.6,122-122,122c-61.2,0-111.9-45.1-120.7-103.8L132.5,243.4z"/>
<path class="st1" d="M131,218c0-67.3,30.5-127.5,78.5-167.5l64.6,71.2C245.4,144,227,178.9,227,218c0,2.4,0.1,4.9,0.2,7.3l-95.7,7.2
	C131.2,227.7,131,222.9,131,218z"/>
<path class="st2" d="M344,0.1c-47.2,1.1-90.7,17.1-125.9,43.6l65,71.6c17.7-11.4,38.5-18.3,60.9-19.2V0.1z"/>
<path class="st3" d="M657,329.7H522.9v86.7H657V329.7z"/>
<path class="st3" d="M514,408.9v-86.7H648v7.1"/>
<path class="st3" d="M505,400.7V314h134.1v7.1"/>
<g class="st4">
	<path class="st5" d="M561.8,348.5c-14.6,0-26.6,11.9-26.6,26.6c0,14.6,11.9,26.6,26.6,26.6s26.6-11.9,26.6-26.6h-26.6V348.5z"/>
	<path class="st5" d="M567.1,348.5c11.7,0,21.3,9.5,21.3,21.3h-21.3V348.5z"/>
</g>
<path class="st6" d="M642,375.4h-41.2v2.8H642V375.4z"/>
<path class="st6" d="M642,390.8h-41.2v2.8H642V390.8z"/>
<path class="st6" d="M642,383.1h-41.2v2.8H642V383.1z"/>
<path class="st6" d="M642,398.5h-41.2v2.8H642V398.5z"/>
<path class="st7" d="M612,348.5h-11.4v21.3H612V348.5z"/>
<path class="st7" d="M625.9,343.6h-11.4v26.2h11.4V343.6z"/>
<path class="st7" d="M640.7,349.3h-12.3v20.4h12.3V349.3z"/>
<path class="st7" d="M669,91h-70l70,70V91z"/>
<path class="st8" d="M653,106.5l-132,140l-123.5-77L237,330"/>
<path class="st9" d="M100.5,209c2.5,0,4.5-2,4.5-4.5s-2-4.5-4.5-4.5s-4.5,2-4.5,4.5S98,209,100.5,209z"/>
<path class="st9" d="M136,277l7-7l-7-7l-7,7L136,277z"/>
<path class="st9" d="M385,135c2.2,0,4-1.8,4-4s-1.8-4-4-4s-4,1.8-4,4S382.8,135,385,135z"/>
<path class="st9" d="M562,80l4-4l-4-4l-4,4L562,80z"/>
<path class="st9" d="M159,127l12-12l-12-12l-12,12L159,127z"/>
<path class="st9" d="M645.8,247.9l4.5,4.5l4.5-4.5l-4.5-4.5L645.8,247.9z"/>
<path class="st9" d="M277,27.5l4.5,4.5l4.5-4.5l-4.5-4.5L277,27.5z"/>
<path class="st9" d="M472.2,446.4c1.2,2.2,4,2.9,6.1,1.7c2.2-1.2,2.9-4,1.7-6.1c-1.2-2.2-4-2.9-6.1-1.7
	C471.7,441.5,471,444.2,472.2,446.4z"/>
<path class="st10" d="M188.7,99.4c0.9,1.6,2.9,2.2,4.5,1.2c1.6-0.9,2.2-3,1.2-4.5c-0.9-1.6-3-2.2-4.5-1.2
	C188.3,95.7,187.7,97.8,188.7,99.4z"/>
<path class="st9" d="M599.6,215.3c2.5,4.3,8,5.8,12.3,3.3c4.3-2.5,5.8-8,3.3-12.3c-2.5-4.3-8-5.8-12.3-3.3
	C598.7,205.4,597.2,210.9,599.6,215.3z"/>
<g>
	<path class="st11" d="M71.4,291.8c1.2-1.2,2.9-1.7,4.5-1c0.6,0.3,1.2,0.6,1.8,0.9c0.6,0.3,1.2,0.7,1.7,1.1c1.4,1,1.8,2.8,1.4,4.4
		l0,0.2c-0.7,2.5,0.8,5,3.3,5.7l0.2,0c1.6,0.4,2.9,1.7,3.1,3.4c0.1,1.3,0.1,2.7,0,4.1c-0.2,1.7-1.5,2.9-3.1,3.4l-0.2,0
		c-2.5,0.6-3.9,3.2-3.3,5.7l0,0.2c0.4,1.6,0,3.4-1.4,4.4c-1.1,0.8-2.3,1.5-3.5,2c-1.5,0.7-3.3,0.2-4.5-1l-0.1-0.1
		c-1.8-1.8-4.7-1.8-6.5,0l-0.1,0.1c-1.2,1.2-2.9,1.7-4.5,1c-0.6-0.3-1.2-0.6-1.8-0.9c-0.6-0.3-1.2-0.7-1.7-1.1
		c-1.4-1-1.8-2.8-1.4-4.4l0-0.2c0.7-2.5-0.8-5-3.3-5.7l-0.2,0c-1.6-0.4-2.9-1.7-3.1-3.4c-0.1-1.3-0.1-2.7,0-4.1
		c0.2-1.7,1.5-2.9,3.1-3.4l0.2,0c2.5-0.6,3.9-3.2,3.3-5.7l0-0.2c-0.4-1.6,0-3.4,1.4-4.4c1.1-0.8,2.3-1.5,3.5-2
		c1.5-0.7,3.3-0.2,4.5,1l0.1,0.1c1.8,1.8,4.7,1.8,6.5,0L71.4,291.8z M62.2,305.1c-1.9,3.2-0.8,7.4,2.5,9.2c3.2,1.9,7.4,0.8,9.2-2.5
		c1.9-3.2,0.8-7.4-2.5-9.2S64,301.9,62.2,305.1z"/>
	<path class="st12" d="M38.4,322.5c0.4-1.6,1.7-2.9,3.4-3.2c1.3-0.2,2.6-0.3,4-0.3c1.4,0,2.7,0.1,4,0.3c1.7,0.2,2.9,1.5,3.4,3.2
		l0.8,3.2c0.6,2.5,3.2,3.9,5.7,3.3l3.2-0.9c1.6-0.4,3.4,0,4.4,1.3c1.7,2.1,3,4.4,4,6.9c0.6,1.6,0.1,3.3-1.1,4.5l-2.4,2.4
		c-1.8,1.8-1.8,4.7,0,6.5l2.4,2.4c1.2,1.2,1.7,2.9,1.1,4.5c-1,2.5-2.4,4.9-4,6.9c-1,1.3-2.8,1.8-4.4,1.3l-3.2-0.9
		c-2.5-0.7-5,0.8-5.7,3.3l-0.8,3.2c-0.4,1.6-1.7,2.9-3.4,3.2c-1.3,0.2-2.6,0.3-4,0.3c-1.4,0-2.7-0.1-4-0.3c-1.7-0.2-2.9-1.5-3.4-3.2
		l-0.8-3.2c-0.6-2.5-3.2-3.9-5.7-3.3l-3.2,0.9c-1.6,0.4-3.4,0-4.4-1.3c-1.7-2.1-3-4.4-4-6.9c-0.6-1.6-0.1-3.3,1.1-4.5l2.4-2.4
		c1.8-1.8,1.8-4.7,0-6.5l-2.4-2.4c-1.2-1.2-1.7-2.9-1.1-4.5c1-2.5,2.4-4.9,4-6.9c1-1.3,2.8-1.8,4.4-1.3l3.2,0.9
		c2.5,0.7,5-0.8,5.7-3.3L38.4,322.5z M36.2,346.5c0,5.3,4.3,9.6,9.6,9.6s9.6-4.3,9.6-9.6c0-5.3-4.3-9.6-9.6-9.6
		S36.2,341.2,36.2,346.5z"/>
	<path class="st13" d="M177.7,185c-8.3,24.6-10.6,16.2-22.7,35.2c-14,22.1-2.2,36.5-11,57.3c-7.9,18.7-24.7,15-35,48
		c-3,19-14.1,13-11,39.9l120.4,25.1l-10.7-170.3"/>
	<path class="st13" d="M278.3,178.5c8.3,25.2-1.2,15.2,10.9,34.7c14,22.6-8.8,36.9,0,58.3c7.9,19.2,8.1,15,20.3,31
		c8.9,11.7,14.7,38.1,11.6,65.7l-97.6,22.3l10.6-174.4"/>
	<path class="st14" d="M371,340c-4,0.8-7.6-2.6-7.1-6.6l8.3-71.5c0.3-2.6,2.3-4.7,4.8-5.2L402,252c4-0.7,7.5,2.5,7.1,6.5l-7.7,71.3
		c-0.3,2.6-2.2,4.8-4.8,5.2L371,340z"/>
	<path class="st15" d="M376.4,302.5l-6.8-5.8c0,0-4.5-2.6-5-6.8c-0.5-4.3,3.5-3.9,3.5-3.9l11.3,6l25.4,5l1.6-13.1l4.9,17.1
		l-5.8,33.3l0.7,27.2l-33.3,3.3l1.8-29.9l-6.4-12.4l-3.4-6.9c0,0-0.5-3.3,1.2-3.4c0,0-4.5-6.5-0.8-8.5c0,0-1.8-4.9,1.3-7l6.1,3.7
		L376.4,302.5z"/>
	<path class="st16" d="M0,462.8c1.4,9.6,2.7,26.8,19.6,31.8h289.6l1.1-41.1l12.2,41.1h38l1.2-24.4c0,0,3-34.1-2-69.5
		c-4.3-30.8-14.9-62.6-38.6-74.1c-51.1-24.8-69.2-30.5-69.2-30.5h-55.4c0,0-75.9,13.2-103.9,47.9C64.4,378.7-1.6,451.2,0,462.8z"/>
	<path class="st15" d="M255,271c0,0-3.9,24-4.9,39.1c0,0-12.8,19.8-53.6-8.3c0,0,5.2-16.1,8.4-41.5"/>
	<path class="st17" d="M255,271c0,0-13.3,2.8-23-3l19.5,27.5L255,271z"/>
	<path class="st15" d="M231.7,268.4c9.1,2.3,22.5,5.4,30.2,0.3c18.5-12.3,13.2-46.2,13-56.7c-0.2-8.5-1-20-6.6-26.9
		c-4.6-5.6-12.7-5.3-19.2-6.3c-8.2-1.3-16.5-2.4-24.8-0.7c-8.5,1.8-18.1,6.7-24.8,12.4c0,0,7.1,34.8,5.4,70.7c0,0,23.2,6.2,25,6.7
		C230.6,268.1,231.1,268.3,231.7,268.4z"/>
	<path class="st18" d="M244.6,250.5c0,0,3.5,8.5,10.6,6"/>
	<path class="st19" d="M259,223l7.8,22.2l-8.5,1.4"/>
	<path class="st13" d="M242.4,223.3c-3.9-2.6-5.3,4.7-4.4,6.9c2.2,5.1,6.1-2,4.8-5.9L242.4,223.3z"/>
	<path class="st13" d="M270,219.5c-3.5-2.2-4.8,4.1-3.9,5.9c1.9,4.3,5.4-1.8,4.3-5L270,219.5z"/>
	<path class="st13" d="M210.4,217.8c11.9,4.3,53,1.4,53-26.4c11.5,11,12.5,26.2,12.5,30.3c1.4-1.6,12-26.6,1-48
		c-7-12.6-22.2-23.1-39.7-24.3c-21.4-1.5-63.7,0-66.7,74.2"/>
	<path class="st15" d="M213.3,219.5c0,0-6.7-12.6-16.4-6.1c-9.7,6.5-6.5,22.8,17.2,25.5"/>
	<path class="st20" d="M202.1,221.8l6,4.3"/>
	<path class="st15" d="M204.6,462.1c0,0,22.4,1.8,39.4,11.5c17,9.6,25.4,8.5,30.3,13.3c4.8,4.8,2.4,7.7,2.4,7.7h-72L204.6,462.1
		L204.6,462.1z"/>
	<path class="st21" d="M204.6,494v-41.5L52.9,436.4"/>
	<path class="st21" d="M121.1,363.3l19.6,82.5"/>
	<path class="st21" d="M223.1,484.1c0,0,27.6,1.6,37.5,9.5"/>
	<path class="st21" d="M237.6,478.7c0,0,26.7,4.8,34.2,13.9"/>
	<path class="st16" d="M346.2,494.7h63.1l4.3-140.8c-5.3-4.5-22.2-11.7-44.8-6.3l-9.3,53.2l-12.2,69.5L346.2,494.7z"/>
	<path class="st21" d="M360,399.2l-10.1,56.9"/>
	<path class="st21" d="M310.2,453.6l-4.1-89.8"/>
	<g>
		<path class="st22" d="M419.5,235.2c21.8,0,39.5-17.7,39.5-39.5s-17.7-39.5-39.5-39.5S380,173.9,380,195.7
			c0,15.5,8.9,28.8,21.8,35.3v12.5l9.7-9.1C414.1,234.9,416.8,235.2,419.5,235.2z"/>
		<path class="st23" d="M399,196.5l12.7,11.5l26.3-26"/>
	</g>
</g>
</svg>
