<svg width="59" height="16" viewBox="0 0 59 16" fill="none" xmlns="http://www.w3.org/2000/svg">
<path fill-rule="evenodd" clip-rule="evenodd" d="M5.05957 0.429175C5.62747 0.662594 5.99821 1.21582 5.99821 1.82981V14.7017H2.96954V5.5141L2.15323 6.33935L0 4.20945L3.40726 0.764864C3.83905 0.328346 4.49168 0.195755 5.05957 0.429175Z" fill="#BDBDBD"/>
<path fill-rule="evenodd" clip-rule="evenodd" d="M12.8129 9.78004V10.3482C12.8129 11.7073 13.9146 12.809 15.2737 12.809C16.6327 12.809 17.7345 11.7073 17.7345 10.3482V8.83386C17.7345 7.4748 16.6327 6.37306 15.2737 6.37306C13.944 6.37306 12.8606 7.42768 12.8144 8.74609V9.78004H12.8129ZM12.8144 3.92474C13.5542 3.55341 14.3895 3.34439 15.2737 3.34439C18.3054 3.34439 20.7631 5.80211 20.7631 8.83386V10.3482C20.7631 13.38 18.3054 15.8377 15.2737 15.8377C12.2419 15.8377 9.78418 13.38 9.78418 10.3482V8.83386C9.78418 8.79002 9.78469 8.7463 9.78572 8.7027V0.31543H12.8144V3.92474Z" fill="#BDBDBD"/>
<path fill-rule="evenodd" clip-rule="evenodd" d="M22.6562 8.83371C22.6562 5.80196 25.114 3.34424 28.1457 3.34424C31.1775 3.34424 33.6352 5.80196 33.6352 8.83371V10.348C33.6352 13.3798 31.1775 15.8375 28.1457 15.8375C25.114 15.8375 22.6562 13.3798 22.6562 10.348V8.83371ZM28.1457 6.37291C26.7867 6.37291 25.6849 7.47465 25.6849 8.83371V10.348C25.6849 11.7071 26.7867 12.8088 28.1457 12.8088C29.5048 12.8088 30.6065 11.7071 30.6065 10.348V8.83371C30.6065 7.47465 29.5048 6.37291 28.1457 6.37291Z" fill="#BDBDBD"/>
<path fill-rule="evenodd" clip-rule="evenodd" d="M35.1494 8.83371C35.1494 5.80196 37.6071 3.34424 40.6389 3.34424C43.6706 3.34424 46.1284 5.80196 46.1284 8.83371V10.348C46.1284 13.3798 43.6706 15.8375 40.6389 15.8375C37.6071 15.8375 35.1494 13.3798 35.1494 10.348V8.83371ZM40.6389 6.37291C39.2798 6.37291 38.1781 7.47465 38.1781 8.83371V10.348C38.1781 11.7071 39.2798 12.8088 40.6389 12.8088C41.9979 12.8088 43.0997 11.7071 43.0997 10.348V8.83371C43.0997 7.47465 41.9979 6.37291 40.6389 6.37291Z" fill="#BDBDBD"/>
<path fill-rule="evenodd" clip-rule="evenodd" d="M48.0215 8.83371C48.0215 5.80196 50.4792 3.34424 53.511 3.34424C56.5427 3.34424 59.0004 5.80196 59.0004 8.83371V14.7018H55.9718V8.83371C55.9718 7.47465 54.87 6.37291 53.511 6.37291C52.1519 6.37291 51.0502 7.47465 51.0502 8.83371V14.7018H48.0215V8.83371Z" fill="#BDBDBD"/>
</svg>
