<?xml version="1.0" encoding="utf-8"?>
<!-- Generator: Adobe Illustrator 23.0.1, SVG Export Plug-In . SVG Version: 6.00 Build 0)  -->
<svg version="1.1" id="레이어_1" xmlns="http://www.w3.org/2000/svg" xmlns:xlink="http://www.w3.org/1999/xlink" x="0px"
	 y="0px" viewBox="0 0 216 116" style="enable-background:new 0 0 216 116;" xml:space="preserve">
<style type="text/css">
	.st0{fill:none;}
	.st1{fill:url(#SVGID_1_);}
	.st2{fill:#FFFFFF;stroke:#5C7CFA;stroke-width:3.3787;stroke-linejoin:round;}
	.st3{fill:none;stroke:#5C7CFA;stroke-width:3.3787;stroke-linejoin:round;}
</style>
<rect class="st0" width="216" height="116"/>
<linearGradient id="SVGID_1_" gradientUnits="userSpaceOnUse" x1="114.1189" y1="51.799" x2="168.7418" y2="20.8279" gradientTransform="matrix(1 0 0 -1 0 118)">
	<stop  offset="0" style="stop-color:#E0E0E0"/>
	<stop  offset="1" style="stop-color:#E0E0E0;stop-opacity:0"/>
</linearGradient>
<path class="st1" d="M147.7,65L209,80.2c2.8,0.7,3.5,4.3,1.2,6l-37.6,28.5c-0.8,0.6-1.8,0.8-2.8,0.6L101,98.8L147.7,65z"/>
<path class="st2" d="M116.9,46.1l30.8,17.8c1.3,0.8,1.4,2.2,0.2,3.1l-41.8,30.6c-1.3,0.9-3.4,1-4.7,0.3L70.6,80.1
	c-1.3-0.8-1.4-2.2-0.2-3.1l41.8-30.6C113.5,45.4,115.6,45.3,116.9,46.1z"/>
<path class="st2" d="M116.9,37.5l30.8,17.8c1.3,0.8,1.4,2.2,0.2,3.1L106.1,89c-1.3,0.9-3.4,1-4.7,0.3L70.6,71.5
	c-1.3-0.8-1.4-2.2-0.2-3.1l41.8-30.6C113.5,36.8,115.6,36.7,116.9,37.5z"/>
<path class="st2" d="M116.9,28.9l30.8,17.8c1.3,0.8,1.4,2.2,0.2,3.1l-41.8,30.6c-1.3,0.9-3.4,1-4.7,0.3L70.6,62.9
	c-1.3-0.8-1.4-2.2-0.2-3.1l41.8-30.6C113.5,28.2,115.6,28.1,116.9,28.9z"/>
<path class="st2" d="M116.9,20.3L147.7,38c1.3,0.8,1.4,2.2,0.2,3.1l-41.8,30.6c-1.3,0.9-3.4,1-4.7,0.3L70.6,54.2
	c-1.3-0.8-1.4-2.2-0.2-3.1l41.8-30.6C113.5,19.6,115.6,19.5,116.9,20.3z"/>
<path class="st2" d="M106.1,62.7l41.8-30.6c1.3-0.9,1.2-2.3-0.2-3.1l-24.9-14.4c-0.6-0.4-1.5-0.5-2.3-0.5l-11.2,0.5l0,1.3l0-1.3
	c-0.9,0-1.8,0.3-2.4,0.8L70.4,42.2c-1.2,0.9-1.2,2.3,0.2,3.1L101.4,63C102.7,63.8,104.8,63.7,106.1,62.7z"/>
<path class="st3" d="M121.8,15.8l-6.2,4.5c-0.5,0.4-1.3,0.4-1.9,0.1l-6.2-3.6"/>
</svg>
