<svg width="248" height="28" viewBox="0 0 248 28" fill="none" xmlns="http://www.w3.org/2000/svg">
<path fill-rule="evenodd" clip-rule="evenodd" d="M0 3.60217C0 0.627833 2.19441 -0.782769 4.90094 0.451961L21.9516 8.22854C24.6579 9.46303 26.8525 12.8747 26.8525 15.8505V22.614C26.8525 25.5883 24.4406 28.0002 21.4675 28.0002H5.38477C2.41044 28.0002 0 25.5883 0 22.6152V3.60217Z" fill="#4F47FB"/>
<path fill-rule="evenodd" clip-rule="evenodd" d="M9.61914 3.59574C9.61914 0.621405 11.8135 -0.787988 14.5186 0.447953L31.54 8.22066C34.2465 9.4566 36.4395 12.8695 36.4395 15.8468V22.6102C36.4395 25.586 34.0266 27.9979 31.052 27.9979H15.0054C12.031 27.9979 9.61914 25.586 9.61914 22.6129V3.59574Z" fill="#4081FE"/>
<path fill-rule="evenodd" clip-rule="evenodd" d="M19.2383 3.59973C19.2383 0.625392 21.4327 -0.785211 24.1392 0.44952L41.1898 8.2261C43.8964 9.46059 46.0908 12.8723 46.0908 15.8481V22.6115C46.0908 25.5859 43.6789 27.9978 40.7058 27.9978H24.6233C21.6487 27.9978 19.2383 25.5859 19.2383 22.6127V3.59973Z" fill="#1BE7AA"/>
<path fill-rule="evenodd" clip-rule="evenodd" d="M66.5483 4.55602C66.5503 4.25284 66.6994 4.07859 66.9527 4.08061L70.2176 4.10579C70.4956 4.1078 70.6457 4.28507 70.6432 4.58775L70.4987 23.1531C70.4966 23.4029 70.344 23.553 70.0661 23.551L66.8011 23.5253C66.5478 23.5233 66.4012 23.3707 66.4032 23.1209L66.4647 15.2584L60.1564 15.209L60.0954 23.072C60.0934 23.3218 59.9161 23.4719 59.6422 23.4694L56.4266 23.4447C56.1481 23.4422 55.998 23.2896 56 23.0403L56.1446 4.47494C56.1471 4.17226 56.2997 3.99751 56.5782 4.00003L59.7933 4.0247C60.0677 4.02672 60.2425 4.20399 60.24 4.50667L60.1831 11.7643L66.4919 11.8137L66.5483 4.55602Z" fill="#231916"/>
<path fill-rule="evenodd" clip-rule="evenodd" d="M80.5727 7.66383L78.2168 16.4872L82.7906 16.5225L80.5727 7.66383ZM72.7122 23.5796C72.4091 23.5771 72.2842 23.3263 72.3642 23.0488L77.5802 4.72321C77.685 4.39737 77.9116 4.17376 78.3618 4.17729L82.8621 4.21204C83.3119 4.21556 83.535 4.44269 83.6105 4.77055L88.5646 23.1747C88.6406 23.4537 88.5117 23.7025 88.209 23.7L85.0217 23.6748C84.719 23.6728 84.5442 23.5444 84.4687 23.2694L83.5914 19.8181L77.3606 19.7693L76.4586 23.2075C76.3786 23.4809 76.2018 23.6063 75.8986 23.6038L72.7122 23.5796Z" fill="#231916"/>
<path fill-rule="evenodd" clip-rule="evenodd" d="M100.702 18.1265C100.714 16.4943 100.043 15.4578 98.0592 15.4427L94.5163 15.415L94.476 20.5902C95.2526 20.6985 96.3071 20.7806 97.3139 20.7881C99.8501 20.8077 100.687 20.0125 100.702 18.1265ZM94.5782 7.478L94.5419 12.1259L97.3567 12.1475C99.3898 12.1637 100.099 11.3916 100.112 9.78407C100.125 8.07378 99.2271 7.3385 96.7639 7.31936C95.9868 7.31332 95.2828 7.35714 94.5782 7.478ZM90.444 21.9167L90.5664 6.14191C90.5745 5.16036 90.8313 4.71214 91.5857 4.51371C93.1721 4.12492 95.1574 3.98894 97.1169 4.00405C101.99 4.04182 104.06 6.09557 104.034 9.53629C104.02 11.2959 103.33 12.6975 101.617 13.5637C103.918 14.3101 104.759 16.1246 104.743 18.2071C104.712 22.2043 102.761 24.1734 97.5375 24.1326C95.2505 24.115 92.9928 23.9705 91.4377 23.5323C90.6863 23.351 90.4365 22.8706 90.444 21.9167Z" fill="#231916"/>
<path fill-rule="evenodd" clip-rule="evenodd" d="M107.918 4.91856C107.921 4.59171 108.074 4.41645 108.372 4.41897L111.538 4.44365C111.866 4.44617 111.991 4.62294 111.989 4.95029L111.845 23.4376C111.842 23.7407 111.714 23.8908 111.387 23.8883L108.221 23.8636C107.922 23.8611 107.771 23.709 107.774 23.4058L107.918 4.91856Z" fill="#231916"/>
<path fill-rule="evenodd" clip-rule="evenodd" d="M119.881 8.00254L115.283 7.96678C114.96 7.96427 114.785 7.81117 114.788 7.45964L114.807 4.97177C114.81 4.62025 114.987 4.47017 115.31 4.47269L128.602 4.57643C128.905 4.57845 129.08 4.73155 129.077 5.08307L129.057 7.57094C129.055 7.92247 128.878 8.07254 128.575 8.07003L123.952 8.03377L123.831 23.5311C123.829 23.8338 123.701 23.9838 123.374 23.9818L120.187 23.9571C119.884 23.9546 119.758 23.802 119.761 23.4993L119.881 8.00254Z" fill="#231916"/>
<path fill-rule="evenodd" clip-rule="evenodd" d="M151.827 4.73262C152.154 4.76032 152.279 4.96126 152.277 5.31329L152.26 7.4733C152.258 7.72662 152.08 7.90138 151.827 7.89936L145.396 7.849C144.267 7.84044 143.96 8.34154 143.952 9.4218L143.926 12.7109L150.91 12.7648C151.212 12.7673 151.387 12.8958 151.384 13.2473L151.365 15.7351C151.362 16.0867 151.186 16.208 150.883 16.2055L143.899 16.1511L143.84 23.7401C143.838 23.9894 143.661 24.1395 143.412 24.1375L140.171 24.1123C139.893 24.1108 139.743 23.9577 139.745 23.7084L139.863 8.53442C139.887 5.49509 141.029 4.34584 144.646 4.37404C147.333 4.39519 149.595 4.53923 151.827 4.73262Z" fill="#231916"/>
<path fill-rule="evenodd" clip-rule="evenodd" d="M160.194 8.29957L157.838 17.1229L162.412 17.1582L160.194 8.29957ZM152.334 24.2154C152.031 24.2129 151.906 23.9621 151.986 23.6846L157.202 5.35945C157.307 5.03311 157.533 4.8095 157.983 4.81303L162.483 4.84778C162.933 4.8513 163.157 5.07844 163.232 5.40629L168.186 23.811C168.262 24.09 168.133 24.3383 167.83 24.3357L164.644 24.3111C164.34 24.3085 164.166 24.1801 164.09 23.9057L163.213 20.4539L156.982 20.4055L156.08 23.8432C156 24.1167 155.823 24.2421 155.52 24.2396L152.334 24.2154Z" fill="#231916"/>
<path fill-rule="evenodd" clip-rule="evenodd" d="M168.738 13.9712C168.784 8.04313 171 4.59133 176.952 4.63767C178.585 4.65026 180.215 4.89199 181.292 5.32611C181.642 5.48022 181.743 5.63181 181.74 6.00851L181.725 7.94341C181.723 8.29494 181.546 8.39213 181.244 8.34076C180.316 8.2068 179.085 8.09903 177.752 8.08845C174.135 8.06075 172.865 9.93219 172.831 14.228L172.824 15.0832C172.791 19.3785 174.032 21.2747 177.648 21.3029C178.982 21.3129 180.517 21.2228 181.422 21.1276C181.746 21.0808 181.921 21.1845 181.919 21.5119L181.903 23.4669C181.9 23.8194 181.801 23.9942 181.423 24.1428C180.34 24.5638 178.427 24.7738 176.795 24.7617C170.843 24.7149 168.681 21.2042 168.727 15.2766L168.738 13.9712Z" fill="#231916"/>
<path fill-rule="evenodd" clip-rule="evenodd" d="M189.016 8.54893L184.422 8.51317C184.094 8.51065 183.92 8.35755 183.922 8.00603L183.942 5.51816C183.944 5.16663 184.121 5.01656 184.449 5.01907L197.736 5.12282C198.039 5.12483 198.214 5.27793 198.211 5.62946L198.192 8.11733C198.189 8.46885 198.012 8.61893 197.709 8.61641L193.086 8.58015L192.966 24.0775C192.963 24.3801 192.835 24.5302 192.508 24.5282L189.321 24.5035C189.018 24.501 188.893 24.3484 188.895 24.0457L189.016 8.54893Z" fill="#231916"/>
<path fill-rule="evenodd" clip-rule="evenodd" d="M211.008 14.554C211.042 10.1599 209.899 8.36753 207.011 8.34487C204.073 8.3222 202.926 10.0969 202.891 14.4905L202.885 15.321C202.851 19.6904 203.97 21.5114 206.907 21.5341C209.796 21.5568 210.968 19.7538 211.002 15.3844L211.008 14.554ZM198.789 15.3915L198.798 14.3359C198.846 8.08047 201.334 4.83113 207.037 4.87545C212.691 4.91977 215.153 8.20788 215.104 14.4628L215.096 15.5184C215.047 21.7738 212.534 25.0438 206.881 24.9995C201.177 24.9552 198.741 21.6469 198.789 15.3915Z" fill="#231916"/>
<path fill-rule="evenodd" clip-rule="evenodd" d="M226.686 11.7215L226.69 11.1408C226.705 9.20993 225.96 8.2999 223.349 8.27925C222.568 8.27321 221.765 8.31601 221.085 8.43739L221.039 14.4637C221.791 14.5473 222.622 14.5538 223.3 14.5594C225.935 14.58 226.671 13.6035 226.686 11.7215ZM230.611 10.9464L230.604 11.8751C230.584 14.44 229.215 16.1926 227.171 17.1298L231.411 24.319C231.561 24.598 231.46 24.8468 231.108 24.8442L228.069 24.8206C227.463 24.816 227.239 24.6871 227.018 24.2112L223.926 17.8288C223.124 17.8228 221.966 17.7402 221.013 17.6546L220.962 24.3109C220.96 24.6141 220.832 24.7642 220.504 24.7616L217.391 24.7375C217.064 24.7349 216.914 24.5823 216.916 24.2797L217.049 7.15014C217.057 6.19276 217.314 5.74505 218.068 5.55015C219.655 5.15783 221.739 4.99768 223.726 5.0138C228.751 5.05257 230.641 7.10481 230.611 10.9464Z" fill="#231916"/>
<path fill-rule="evenodd" clip-rule="evenodd" d="M239.67 14.1838L243.752 5.95121C243.906 5.65005 244.083 5.49997 244.435 5.50249L247.45 5.52616C247.826 5.52867 247.902 5.83236 247.748 6.13402L241.168 18.2949L241.624 24.4727C241.621 24.7749 241.497 24.9255 241.17 24.923L237.979 24.8978C237.676 24.8958 237.526 24.7432 237.528 24.4405L237.577 18.2631L231.694 6.00913C231.545 5.70494 231.625 5.40227 232.026 5.40579L235.042 5.42896C235.393 5.43198 235.568 5.58508 235.689 5.88826L239.67 14.1838Z" fill="#231916"/>
</svg>
